<?xml version="1.0" encoding="utf-8"?>
<!-- Generator: Adobe Illustrator 19.1.1, SVG Export Plug-In . SVG Version: 6.00 Build 0)  -->
<svg version="1.1" id="Layer_1" xmlns="http://www.w3.org/2000/svg" xmlns:xlink="http://www.w3.org/1999/xlink" x="0px" y="0px"
	 viewBox="0 0 74 73.9" style="enable-background:new 0 0 74 73.9;" xml:space="preserve">
<style type="text/css">
	.st0{fill:#00A98F;}
</style>
<path class="st0" d="M46,26.8L21.8,45.5c-3.1,2.4-3.9,6.2-1.7,8.4c2.2,2.2,6,1.4,8.4-1.7L47.2,28C49.7,24.9,49.1,24.3,46,26.8z
	 M73.6,4.7L49.4,70.5c-1.4,3.7-4.8,4.5-7.6,1.7l-14-14l-12.3,4.5c-3.7,1.4-5.7-0.6-4.3-4.3l4.5-12.3l-14-14
	c-2.8-2.8-2.1-6.2,1.7-7.6L69.2,0.4C73-0.9,74.9,1,73.6,4.7z"/>
</svg>
