<?xml version="1.0" encoding="utf-8"?>
<!-- Generator: Adobe Illustrator 19.1.0, SVG Export Plug-In . SVG Version: 6.00 Build 0)  -->
<svg version="1.1" id="Layer_1" xmlns="http://www.w3.org/2000/svg" xmlns:xlink="http://www.w3.org/1999/xlink" x="0px" y="0px"
	 viewBox="0 0 180.1 180" style="enable-background:new 0 0 180.1 180;" xml:space="preserve">
<style type="text/css">
	.st0{fill:#A60085;}
</style>
<path class="st0" d="M11.8,123.1L0,111.4L111.4,0l12.3,12.3C148.7,37.3,36.5,147.9,11.8,123.1z M31,60.3c-1-1-1-2.7,0-3.7L56.6,31
	c1-1,2.7-1,3.7,0l4.6,4.6l8.1-8.1l-8.3-8.3c-3.2-3.2-8.3-3.2-11.5,0l-34,34c-3.2,3.2-3.2,8.3,0,11.5l8.3,8.3l8.1-8.1L31,60.3z
	 M137.1,30l43,43L73,180l-43.5-43.5C65.3,129.9,130.3,65.9,137.1,30z M105.9,93.6l-12.3,12.3l4.8,4.8c3.4,3.4,8.9,3.4,12.3,0
	c3.4-3.4,3.4-8.9,0-12.3L105.9,93.6L105.9,93.6z M79.8,88.4l8.6-8.6l-3.9-3.9c-2.7-2.7-0.4,3.4-2.8,5.8c-2.4,2.4-8.5,0.1-5.8,2.8
	L79.8,88.4L79.8,88.4z"/>
<g>
</g>
<g>
</g>
<g>
</g>
<g>
</g>
<g>
</g>
<g>
</g>
<g>
</g>
<g>
</g>
<g>
</g>
<g>
</g>
<g>
</g>
<g>
</g>
<g>
</g>
<g>
</g>
<g>
</g>
</svg>
