<?xml version="1.0" encoding="utf-8"?>
<!-- Generator: Adobe Illustrator 19.2.0, SVG Export Plug-In . SVG Version: 6.00 Build 0)  -->
<svg version="1.1" id="Layer_1" xmlns="http://www.w3.org/2000/svg" xmlns:xlink="http://www.w3.org/1999/xlink" x="0px" y="0px"
	 viewBox="0 0 41.2 57.4" style="enable-background:new 0 0 41.2 57.4;" xml:space="preserve">
<style type="text/css">
	.st0{fill:#E95427;}
</style>
<path class="st0" d="M40.1,39.3c0-4.4-5.3-7.8-8.7-9.5c0.4-3.9,1.2-15.4-1.2-21.5c0-0.1-2-8.2-9.6-8.3c-7.5,0.1-9.5,8.2-9.5,8.2
	c-2.4,6.2-1.6,17.7-1.2,21.6c-3.4,1.7-8.7,5-8.7,9.5C1.1,45.4,0,56.9,0,57c0,0.1,0,0.2,0.1,0.3c0.1,0.1,0.2,0.1,0.3,0.1h40.5
	c0.1,0,0.2,0,0.3-0.1c0.1-0.1,0.1-0.2,0.1-0.3C41.2,56.9,40.1,45.4,40.1,39.3z M25.5,8c0.2,1.1,3.1,11,0.8,13.3
	c-0.1,0.1-2.1,1.9-1.9,4c0,0.1-0.1,2,3.4,4.4c-2.4,7.3-7,7.4-7.2,7.4c-0.2,0-4.8-0.1-7.2-7.4c3.4-2.4,3.4-4.3,3.4-4.4
	c0.2-2.2-1.8-4-1.9-4c-2.3-2.4-1.7-7.1-1.6-8.2c0,0,1.2-2,7.2-2.1C24.3,10.9,25.5,8,25.5,8z"/>
</svg>
