<?xml version="1.0" encoding="utf-8"?>
<!-- Generator: Adobe Illustrator 19.1.1, SVG Export Plug-In . SVG Version: 6.00 Build 0)  -->
<svg version="1.1" id="Layer_1" xmlns="http://www.w3.org/2000/svg" xmlns:xlink="http://www.w3.org/1999/xlink" x="0px" y="0px"
	 viewBox="-442 269 74 24" style="enable-background:new -442 269 74 24;" xml:space="preserve">
<style type="text/css">
	.st0{fill:#FFFFFF;}
</style>
<g>
	<path class="st0" d="M-435.2,279.3h0.5c2.3,0,4.1,0.7,5.4,2c1.3,1.3,2,2.9,2,4.9s-0.7,3.6-2,4.9c-1.3,1.3-3.1,2-5.3,2
		c-2.3,0-4.2-0.7-5.5-2c-1.3-1.3-2-3-2-4.9v-0.3c0.1-8,3.4-13.6,9.9-16.9l2.4,4.4C-432.4,274.4-434.2,276.4-435.2,279.3z
		 M-417.1,279.3h0.5c2.3,0,4.1,0.7,5.4,2c1.3,1.3,2,2.9,2,4.9s-0.7,3.6-2,4.9c-1.3,1.3-3.1,2-5.3,2c-2.3,0-4.2-0.7-5.5-2
		c-1.3-1.3-2-3-2-4.9v-0.3c0-7.9,3.3-13.5,9.8-16.7l2.4,4.4C-414.3,274.4-416.1,276.4-417.1,279.3z"/>
	<path class="st0" d="M-392.9,282.7h-0.5c-2.3,0-4.1-0.7-5.4-2c-1.3-1.3-2-2.9-2-4.9s0.7-3.6,2-4.9c1.3-1.3,3.1-2,5.3-2
		c2.3,0,4.2,0.7,5.5,2c1.3,1.3,2,3,2,4.9v0.3c0,7.9-3.3,13.5-9.8,16.7l-2.4-4.4C-395.7,287.6-393.9,285.6-392.9,282.7z
		 M-374.8,282.7h-0.5c-2.3,0-4.1-0.7-5.4-2c-1.3-1.3-2-2.9-2-4.9s0.7-3.6,2-4.9c1.3-1.3,3.1-2,5.3-2c2.3,0,4.2,0.7,5.5,2
		c1.3,1.3,2,3,2,4.9v0.3c0,7.9-3.3,13.5-9.8,16.7l-2.4-4.4C-377.5,287.6-375.7,285.6-374.8,282.7z"/>
</g>
</svg>
